<svg xmlns="http://www.w3.org/2000/svg" version="1.1" xmlns:xlink="http://www.w3.org/1999/xlink" width="200" height="200"><svg xmlns="http://www.w3.org/2000/svg" version="1.1" xmlns:xlink="http://www.w3.org/1999/xlink" width="200" height="200"><svg xmlns="http://www.w3.org/2000/svg" version="1.1" xmlns:xlink="http://www.w3.org/1999/xlink" viewBox="0 0 200 200"><rect width="200" height="200" fill="url('#gradient')"></rect><defs><linearGradient id="gradient" gradientTransform="rotate(121 0.5 0.5)"><stop offset="0%" stop-color="#2b2b2b"></stop><stop offset="100%" stop-color="#2b2b2"></stop></linearGradient></defs><g><g fill="#32cd32" transform="matrix(10.475997751545812,0,0,10.475997751545812,-0.9350222249524194,174.4363392054733)" stroke="#c2d02d" stroke-width="0"><path d="M7.37-10.64L7.31-7.59L6.23-7.67Q4.68-7.67 4.24-6.69L4.24-6.69L4.24 0L0.95 0L0.95-10.57L4.03-10.57L4.14-9.21Q4.97-10.76 6.46-10.76L6.46-10.76Q6.98-10.76 7.37-10.64L7.37-10.64ZM18.32-8.40L18.32-5.81Q18.32-2.93 17.03-1.37Q15.73 0.20 13.38 0.20L13.38 0.20Q11.01 0.20 9.71-1.38Q8.41-2.95 8.41-5.81L8.41-5.81L8.41-8.41Q8.41-11.29 9.70-12.85Q11.00-14.41 13.36-14.41Q15.72-14.41 17.02-12.84Q18.32-11.27 18.32-8.40L18.32-8.40ZM15.03-5.31L15.03-8.83Q15.03-10.36 14.63-11.12Q14.23-11.88 13.36-11.88L13.36-11.88Q12.51-11.88 12.12-11.17Q11.74-10.47 11.71-9.04L11.71-9.04L11.71-5.41Q11.71-3.82 12.11-3.08Q12.51-2.34 13.38-2.34L13.38-2.34Q14.22-2.34 14.62-3.06Q15.02-3.78 15.03-5.31L15.03-5.31Z"></path></g></g></svg></svg><style>@media (prefers-color-scheme: light) { :root { filter: none; } }
@media (prefers-color-scheme: dark) { :root { filter: none; } }
</style></svg>